<svg width="25" height="28" viewBox="0 0 25 28" fill="none" xmlns="http://www.w3.org/2000/svg">
<path d="M9.02566 27.6548C8.10637 27.6548 7.3512 26.9076 7.3512 25.987C7.3512 25.0664 8.09168 24.3192 9.0123 24.3192H9.02566C9.94627 24.3192 10.6934 25.0664 10.6934 25.987C10.6934 26.9076 9.94627 27.6548 9.02566 27.6548Z" fill="#7C8899"/>
<path d="M19.6994 27.6548C18.7801 27.6548 18.025 26.9076 18.025 25.987C18.025 25.0664 18.7655 24.3192 19.6861 24.3192H19.6994C20.62 24.3192 21.3672 25.0664 21.3672 25.987C21.3672 26.9076 20.62 27.6548 19.6994 27.6548Z" fill="#7C8899"/>
<path opacity="0.4" d="M22.3399 5.97356H6.25051L5.97167 4.12432C5.71283 2.29643 4.18378 0.970215 2.33855 0.970215H1.99164C1.43927 0.970215 0.990967 1.41851 0.990967 1.97088C0.990967 2.52325 1.43927 2.97155 1.99164 2.97155H2.33855C3.17778 2.97155 3.87159 3.57462 3.99167 4.41519L5.99431 18.3552C6.1811 19.6761 7.30183 20.65 8.63605 20.65H19.6701C22.472 20.65 23.2591 19.2624 23.606 17.3678L24.9536 9.12233C25.2618 7.48123 23.9943 5.97356 22.3399 5.97356Z" fill="#7C8899"/>
<path d="M15.43 9.7961L16.2932 11.5386C16.3586 11.6693 16.484 11.7601 16.6281 11.7814L18.6214 12.0696C18.987 12.123 19.1323 12.5713 18.8682 12.8274L17.4273 14.2257C17.3218 14.3284 17.2739 14.4752 17.2992 14.6193L17.6287 16.5339C17.6954 16.9222 17.2872 17.2184 16.9377 17.0356L15.2085 16.131C15.0791 16.063 14.9242 16.063 14.7948 16.131L13.0671 17.0356C12.7162 17.2184 12.3078 16.9222 12.3746 16.5339L12.704 14.622C12.7294 14.4779 12.6814 14.3298 12.576 14.2284L11.1351 12.8301C10.8709 12.5726 11.0163 12.1243 11.3819 12.0723L13.3752 11.7841C13.5207 11.7627 13.646 11.672 13.7101 11.5413L14.5733 9.79876C14.7494 9.44252 15.2539 9.44253 15.43 9.7961Z" fill="#7C8899"/>
</svg>
