<svg width="24" height="24" viewBox="0 0 24 24" fill="none" xmlns="http://www.w3.org/2000/svg">
<path d="M9.021 22.25C8.332 22.25 7.76599 21.69 7.76599 21C7.76599 20.31 8.32099 19.75 9.01099 19.75H9.021C9.711 19.75 10.271 20.31 10.271 21C10.271 21.69 9.711 22.25 9.021 22.25Z" fill="#889990"/>
<path d="M17.021 22.25C16.332 22.25 15.766 21.69 15.766 21C15.766 20.31 16.321 19.75 17.011 19.75H17.021C17.711 19.75 18.271 20.31 18.271 21C18.271 21.69 17.711 22.25 17.021 22.25Z" fill="#889990"/>
<path opacity="0.4" d="M19 6H6.94104L6.73206 4.614C6.53806 3.244 5.39203 2.25 4.00903 2.25H3.74902C3.33502 2.25 2.99902 2.586 2.99902 3C2.99902 3.414 3.33502 3.75 3.74902 3.75H4.00903C4.63803 3.75 5.15805 4.202 5.24805 4.832L6.74902 15.28C6.88902 16.27 7.729 17 8.729 17H16.999C19.099 17 19.689 15.96 19.949 14.54L20.959 8.36C21.19 7.13 20.24 6 19 6Z" fill="#889990"/>
<path d="M13.821 8.86501L14.468 10.171C14.517 10.269 14.611 10.337 14.719 10.353L16.213 10.569C16.487 10.609 16.5959 10.945 16.3979 11.137L15.318 12.185C15.239 12.262 15.203 12.372 15.222 12.48L15.469 13.915C15.519 14.206 15.213 14.428 14.951 14.291L13.655 13.613C13.558 13.562 13.442 13.562 13.345 13.613L12.05 14.291C11.787 14.428 11.481 14.206 11.531 13.915L11.7779 12.482C11.7969 12.374 11.761 12.263 11.682 12.187L10.602 11.139C10.404 10.946 10.513 10.61 10.787 10.571L12.281 10.355C12.39 10.339 12.484 10.271 12.532 10.173L13.1789 8.867C13.3109 8.6 13.689 8.60001 13.821 8.86501Z" fill="#889990"/>
</svg>
