<svg width="30" height="30" viewBox="0 0 30 30" fill="none" xmlns="http://www.w3.org/2000/svg">
<path d="M11.0257 28.6548C10.1064 28.6548 9.3512 27.9076 9.3512 26.987C9.3512 26.0664 10.0917 25.3192 11.0123 25.3192H11.0257C11.9463 25.3192 12.6934 26.0664 12.6934 26.987C12.6934 27.9076 11.9463 28.6548 11.0257 28.6548Z" fill="#1EB38F"/>
<path d="M21.6994 28.6548C20.7801 28.6548 20.025 27.9076 20.025 26.987C20.025 26.0664 20.7655 25.3192 21.6861 25.3192H21.6994C22.62 25.3192 23.3672 26.0664 23.3672 26.987C23.3672 27.9076 22.62 28.6548 21.6994 28.6548Z" fill="#1EB38F"/>
<path opacity="0.4" d="M24.3399 6.97356H8.2505L7.97167 5.12432C7.71283 3.29643 6.18378 1.97021 4.33855 1.97021H3.99164C3.43927 1.97021 2.99097 2.41851 2.99097 2.97088C2.99097 3.52325 3.43927 3.97155 3.99164 3.97155H4.33855C5.17778 3.97155 5.87159 4.57462 5.99167 5.41519L7.99431 19.3552C8.1811 20.6761 9.30183 21.65 10.6361 21.65H21.6701C24.472 21.65 25.2591 20.2624 25.606 18.3678L26.9536 10.1223C27.2618 8.48123 25.9943 6.97356 24.3399 6.97356Z" fill="#1EB38F"/>
<path d="M17.43 10.7961L18.2932 12.5386C18.3586 12.6693 18.484 12.7601 18.6281 12.7814L20.6214 13.0696C20.987 13.123 21.1323 13.5713 20.8682 13.8274L19.4273 15.2257C19.3218 15.3284 19.2739 15.4752 19.2992 15.6193L19.6287 17.5339C19.6954 17.9222 19.2872 18.2184 18.9377 18.0356L17.2085 17.131C17.0791 17.063 16.9242 17.063 16.7948 17.131L15.0671 18.0356C14.7162 18.2184 14.3078 17.9222 14.3746 17.5339L14.704 15.622C14.7294 15.4779 14.6814 15.3298 14.576 15.2284L13.1351 13.8301C12.8709 13.5726 13.0163 13.1243 13.3819 13.0723L15.3752 12.7841C15.5207 12.7627 15.646 12.672 15.7101 12.5413L16.5733 10.7988C16.7494 10.4425 17.2539 10.4425 17.43 10.7961Z" fill="#1EB38F"/>
</svg>
