<svg width="58" height="58" viewBox="0 0 58 58" fill="none" xmlns="http://www.w3.org/2000/svg">
<g clip-path="url(#clip0_197_849)">
<path d="M29 27C43.9034 27 56 39.1368 56 54.0845V56H2V54.0845C2 39.1344 14.0989 27 29 27Z" fill="#EBEEF7"/>
<path d="M40.9716 15.7728V15.1013C40.9716 8.4299 35.579 3 28.9534 3C22.3278 3 16.9352 8.4299 16.9352 15.1013V15.7728C16.4344 16.1453 16.1098 16.7407 16.1098 17.4122C16.1098 18.5346 17.0182 19.4493 18.133 19.4493C19.2478 19.4493 20.1562 18.5346 20.1562 17.4122C20.1562 16.7407 19.829 16.1453 19.3308 15.7728V15.1013C19.3308 9.7576 23.6489 5.41216 28.9534 5.41216C34.2579 5.41216 38.5761 9.76013 38.5761 15.1013V15.7728C38.0753 16.1453 37.7507 16.7407 37.7507 17.4122C37.7507 18.5346 38.6591 19.4493 39.7739 19.4493C40.8886 19.4493 41.797 18.5346 41.797 17.4122C41.797 16.7407 41.4699 16.1453 40.9716 15.7728Z" fill="#CFD5EB"/>
<path d="M50.9164 14.0473V42.6106C50.9164 42.3268 50.8006 42.0684 50.6169 41.8809C50.4332 41.6959 50.1766 41.5794 49.8922 41.5794H11.6684C9.48422 41.5794 7.60448 43.2694 7.50131 45.4662C7.49879 45.5321 7.49628 45.598 7.49628 45.6638V16.538C7.49628 13.8598 9.65281 11.6858 12.3151 11.6858H48.5711C49.8671 11.6858 50.9164 12.7424 50.9164 14.0473Z" fill="#1EB28F"/>
<path d="M11.7037 40.1529C11.4948 40.1529 11.3262 39.9831 11.3262 39.7728V13.5203C11.3262 13.31 11.4948 13.1402 11.7037 13.1402C11.9125 13.1402 12.0811 13.31 12.0811 13.5203V39.7753C12.0811 39.9856 11.9125 40.1554 11.7037 40.1554V40.1529Z" fill="#3FD3B0"/>
<path d="M11.6231 43.6418H49.8897C50.4559 43.6418 50.9139 43.1807 50.9139 42.6106C50.9139 42.0405 50.4559 41.5793 49.8897 41.5793H11.6684C9.48423 41.5793 7.60449 43.2694 7.50132 45.4662C7.3906 47.8125 9.24769 49.7533 11.5527 49.7533H49.8897C50.4559 49.7533 50.9139 49.2922 50.9139 48.7221C50.9139 48.152 50.4559 47.6908 49.8897 47.6908H11.5527C10.4027 47.6908 9.47164 46.7077 9.54965 45.5295C9.62011 44.4552 10.5537 43.6444 11.6231 43.6444V43.6418Z" fill="#3FD3B0"/>
<path d="M11.6232 44.6757H49.8922V43.6444H11.6232C10.5562 43.6444 9.62012 44.4578 9.55218 45.5295C9.47417 46.7078 10.4052 47.6909 11.5552 47.6909H49.8922V46.6596H11.5527C11.2784 46.6596 11.0243 46.5481 10.838 46.3454C10.6493 46.1427 10.5537 45.8767 10.5713 45.598C10.604 45.0887 11.0771 44.6782 11.6206 44.6782L11.6232 44.6757Z" fill="#CFD5EB"/>
<path d="M49.8922 44.6757V46.6596H11.5527C11.2784 46.6596 11.0243 46.5481 10.838 46.3454C10.6493 46.1427 10.5537 45.8767 10.5713 45.598C10.604 45.0887 11.0771 44.6782 11.6206 44.6782H49.8897L49.8922 44.6757Z" fill="white"/>
<path d="M19.2981 45.7069V51.1486C19.2981 51.7491 18.6992 52.1596 18.1456 51.9417L16.0091 50.8015L13.9306 51.9341C13.377 52.1545 12.7756 51.7441 12.7756 51.1436V45.7069H19.2981Z" fill="#394570"/>
<path d="M18.679 49.2222C19.0188 49.2222 19.2956 49.5009 19.2956 49.8429V52.1487C19.2956 52.7492 18.6967 53.1597 18.1431 52.9418L16.0066 51.8016L13.9281 52.9342C13.3745 53.1546 12.7731 52.7441 12.7731 52.1436V49.8429C12.7731 49.5009 13.0499 49.2222 13.3896 49.2222H18.6765H18.679Z" fill="#394570"/>
<path d="M12.5693 45.2306H19.5044C19.7661 45.2306 19.975 45.4434 19.975 45.7044C19.975 45.9679 19.7636 46.1782 19.5044 46.1782H12.5693C12.3101 46.1782 12.0987 45.9654 12.0987 45.7044C12.0987 45.4409 12.3101 45.2306 12.5693 45.2306Z" fill="#CFD5EB"/>
<path d="M43.5157 18.489H41.1201V15.1013C41.1201 9.7576 36.802 5.41216 31.4975 5.41216C26.193 5.41216 21.8749 9.76013 21.8749 15.1013V18.489H19.4793V15.1013C19.4793 8.4299 24.8719 3 31.4975 3C38.1231 3 43.5157 8.4299 43.5157 15.1013V18.489Z" fill="#394570"/>
<path d="M20.6771 15.375C19.5623 15.375 18.6539 16.2897 18.6539 17.4122C18.6539 18.5346 19.5623 19.4493 20.6771 19.4493C21.7918 19.4493 22.7002 18.5346 22.7002 17.4122C22.7002 16.2897 21.7918 15.375 20.6771 15.375Z" fill="#394570"/>
<path d="M42.3204 15.375C41.2057 15.375 40.2973 16.2897 40.2973 17.4122C40.2973 18.5346 41.2057 19.4493 42.3204 19.4493C43.4352 19.4493 44.3436 18.5346 44.3436 17.4122C44.3436 16.2897 43.4352 15.375 42.3204 15.375Z" fill="#394570"/>
<path d="M5.06628 6C3.92324 6 3 6.93748 3 8.09816C3 9.25883 3.92324 10.1963 5.06628 10.1963C6.20932 10.1963 7.13215 9.25637 7.13215 8.09816C7.13215 6.93994 6.20689 6 5.06628 6ZM5.06628 9.41843C4.34829 9.41843 3.76607 8.82722 3.76607 8.09816C3.76607 7.36909 4.3487 6.77788 5.06628 6.77788C5.78386 6.77788 6.36608 7.36909 6.36608 8.09816C6.36608 8.82722 5.78426 9.41843 5.06628 9.41843Z" fill="#CEDDEA"/>
<path d="M54.6962 35C53.758 35 53 35.7693 53 36.7223C53 37.6754 53.758 38.4447 54.6962 38.4447C55.6344 38.4447 56.3919 37.6734 56.3919 36.7223C56.3919 35.7713 55.6327 35 54.6962 35ZM54.6962 37.6254C54.2049 37.6254 53.8065 37.2208 53.8065 36.7219C53.8065 36.223 54.2049 35.8185 54.6962 35.8185C55.1875 35.8185 55.5855 36.223 55.5855 36.7219C55.5855 37.2208 55.1871 37.6254 54.6962 37.6254Z" fill="#CEDDEA"/>
<path d="M55.0004 10C53.8939 10 53 10.8936 53 12C53 13.1064 53.8936 14 55.0004 14C56.1072 14 57 13.1042 57 12C57 10.8958 56.1046 10 55.0004 10ZM55.0004 13.2584C54.3056 13.2584 53.7416 12.6948 53.7416 12C53.7416 11.3052 54.3052 10.7416 55.0004 10.7416C55.6955 10.7416 56.2588 11.3052 56.2588 12C56.2588 12.6948 55.6955 13.2584 55.0004 13.2584Z" fill="#CEDDEA"/>
<path d="M3.17537 35C1.97213 35 1 35.9867 1 37.2085C1 38.4303 1.97172 39.417 3.17537 39.417C4.37901 39.417 5.34993 38.4279 5.34993 37.2085C5.34993 35.9892 4.37619 35 3.17537 35ZM3.17537 38.5981C2.41981 38.5981 1.80647 37.9757 1.80647 37.2085C1.80647 36.4413 2.4194 35.8189 3.17537 35.8189C3.93133 35.8189 4.54386 36.4413 4.54386 37.2085C4.54386 37.9757 3.93133 38.5981 3.17537 38.5981Z" fill="#CEDDEA"/>
<path d="M1.93706 21.9669C2.29366 21.6048 2.29366 21.0177 1.93706 20.6556C1.58045 20.2935 1.00229 20.2935 0.645686 20.6556C0.289083 21.0177 0.289083 21.6048 0.645685 21.9669C1.00229 22.329 1.58046 22.329 1.93706 21.9669Z" fill="#CEDDEA"/>
<path d="M57.471 23.7081C57.8276 23.346 57.8276 22.7589 57.471 22.3968C57.1144 22.0347 56.5362 22.0347 56.1796 22.3968C55.823 22.7589 55.823 23.346 56.1796 23.7081C56.5362 24.0702 57.1144 24.0702 57.471 23.7081Z" fill="#CEDDEA"/>
<path d="M17.8242 4.67393C18.2795 4.67393 18.6485 4.29921 18.6485 3.83696C18.6485 3.37472 18.2795 3 17.8242 3C17.369 3 17 3.37472 17 3.83696C17 4.29921 17.369 4.67393 17.8242 4.67393Z" fill="#CEDDEA"/>
<path d="M47.8032 2.63126C48.2469 2.63126 48.6065 2.26609 48.6065 1.81563C48.6065 1.36517 48.2469 1 47.8032 1C47.3596 1 47 1.36517 47 1.81563C47 2.26609 47.3596 2.63126 47.8032 2.63126Z" fill="#CEDDEA"/>
<path d="M49.9681 2.63087C50.4115 2.63087 50.771 2.26588 50.771 1.81565C50.771 1.36541 50.4115 1.00043 49.9681 1.00043C49.5247 1.00043 49.1653 1.36541 49.1653 1.81565C49.1653 2.26588 49.5247 2.63087 49.9681 2.63087Z" fill="#CEDDEA"/>
<path d="M52.1326 2.63126C52.5762 2.63126 52.9358 2.26609 52.9358 1.81563C52.9358 1.36517 52.5762 1 52.1326 1C51.6889 1 51.3293 1.36517 51.3293 1.81563C51.3293 2.26609 51.6889 2.63126 52.1326 2.63126Z" fill="#CEDDEA"/>
</g>
<defs>
<clipPath id="clip0_197_849">
<rect width="58" height="58" fill="white"/>
</clipPath>
</defs>
</svg>
