<svg width="91" height="36" viewBox="0 0 91 36" fill="none" xmlns="http://www.w3.org/2000/svg">
<rect width="91" height="36" rx="18" fill="#FFF3D2"/>
<path d="M16.608 13.444C17.648 13.444 18.512 13.708 19.2 14.236C19.888 14.764 20.352 15.48 20.592 16.384H19.14C18.94 15.872 18.62 15.468 18.18 15.172C17.748 14.868 17.216 14.716 16.584 14.716C16.08 14.716 15.628 14.84 15.228 15.088C14.836 15.336 14.524 15.692 14.292 16.156C14.068 16.612 13.956 17.148 13.956 17.764C13.956 18.372 14.068 18.908 14.292 19.372C14.524 19.828 14.836 20.18 15.228 20.428C15.628 20.676 16.08 20.8 16.584 20.8C17.216 20.8 17.748 20.652 18.18 20.356C18.62 20.052 18.94 19.648 19.14 19.144H20.592C20.352 20.048 19.888 20.764 19.2 21.292C18.512 21.812 17.648 22.072 16.608 22.072C15.808 22.072 15.1 21.892 14.484 21.532C13.868 21.164 13.392 20.656 13.056 20.008C12.72 19.352 12.552 18.604 12.552 17.764C12.552 16.924 12.72 16.18 13.056 15.532C13.392 14.876 13.868 14.364 14.484 13.996C15.1 13.628 15.808 13.444 16.608 13.444ZM24.9809 15.304C25.6209 15.304 26.1969 15.44 26.7089 15.712C27.2209 15.984 27.6209 16.376 27.9089 16.888C28.1969 17.4 28.3409 18 28.3409 18.688C28.3409 19.384 28.1969 19.988 27.9089 20.5C27.6209 21.012 27.2209 21.404 26.7089 21.676C26.1969 21.948 25.6209 22.084 24.9809 22.084C24.3409 22.084 23.7649 21.948 23.2529 21.676C22.7489 21.404 22.3489 21.012 22.0529 20.5C21.7649 19.98 21.6209 19.376 21.6209 18.688C21.6209 18 21.7649 17.4 22.0529 16.888C22.3489 16.376 22.7489 15.984 23.2529 15.712C23.7649 15.44 24.3409 15.304 24.9809 15.304ZM24.9809 16.492C24.6289 16.492 24.3049 16.572 24.0089 16.732C23.7129 16.892 23.4729 17.14 23.2889 17.476C23.1129 17.804 23.0249 18.208 23.0249 18.688C23.0249 19.176 23.1129 19.584 23.2889 19.912C23.4729 20.24 23.7129 20.484 24.0089 20.644C24.3049 20.804 24.6289 20.884 24.9809 20.884C25.3329 20.884 25.6569 20.804 25.9529 20.644C26.2489 20.484 26.4849 20.24 26.6609 19.912C26.8449 19.584 26.9369 19.176 26.9369 18.688C26.9369 18.208 26.8449 17.804 26.6609 17.476C26.4849 17.14 26.2489 16.892 25.9529 16.732C25.6569 16.572 25.3329 16.492 24.9809 16.492ZM33.3521 15.28C34.1201 15.28 34.7361 15.528 35.2001 16.024C35.6641 16.52 35.8961 17.228 35.8961 18.148V22H34.5281V18.292C34.5281 17.7 34.3761 17.244 34.0721 16.924C33.7681 16.596 33.3521 16.432 32.8241 16.432C32.2801 16.432 31.8441 16.608 31.5161 16.96C31.1881 17.304 31.0241 17.812 31.0241 18.484V22H29.6561V15.388H31.0241V16.84C31.2001 16.344 31.4961 15.96 31.9121 15.688C32.3281 15.416 32.8081 15.28 33.3521 15.28ZM40.82 20.812V22H39.98C39.276 22 38.74 21.832 38.372 21.496C38.012 21.152 37.832 20.584 37.832 19.792V16.552H36.884V15.388H37.832V13.744H39.212V15.388H40.808V16.552H39.212V19.816C39.212 20.192 39.28 20.452 39.416 20.596C39.56 20.74 39.808 20.812 40.16 20.812H40.82ZM44.7534 15.304C45.3534 15.304 45.8654 15.452 46.2894 15.748C46.7134 16.044 47.0134 16.436 47.1894 16.924V15.388H48.5574V22H47.1894V20.464C47.0134 20.952 46.7134 21.344 46.2894 21.64C45.8654 21.936 45.3534 22.084 44.7534 22.084C44.1774 22.084 43.6614 21.948 43.2054 21.676C42.7574 21.404 42.4054 21.012 42.1494 20.5C41.8934 19.988 41.7654 19.384 41.7654 18.688C41.7654 18 41.8934 17.4 42.1494 16.888C42.4054 16.376 42.7574 15.984 43.2054 15.712C43.6614 15.44 44.1774 15.304 44.7534 15.304ZM45.1734 16.504C44.5654 16.504 44.0774 16.7 43.7094 17.092C43.3494 17.476 43.1694 18.008 43.1694 18.688C43.1694 19.368 43.3494 19.904 43.7094 20.296C44.0774 20.68 44.5654 20.872 45.1734 20.872C45.5574 20.872 45.9014 20.784 46.2054 20.608C46.5094 20.424 46.7494 20.168 46.9254 19.84C47.1014 19.512 47.1894 19.128 47.1894 18.688C47.1894 18.256 47.1014 17.876 46.9254 17.548C46.7494 17.212 46.5094 16.956 46.2054 16.78C45.9014 16.596 45.5574 16.504 45.1734 16.504ZM53.1391 15.304C53.9951 15.304 54.7031 15.532 55.2631 15.988C55.8231 16.436 56.1711 17.048 56.3071 17.824H54.8551C54.7751 17.408 54.5791 17.084 54.2671 16.852C53.9631 16.612 53.5791 16.492 53.1151 16.492C52.5871 16.492 52.1471 16.68 51.7951 17.056C51.4431 17.424 51.2671 17.968 51.2671 18.688C51.2671 19.408 51.4431 19.956 51.7951 20.332C52.1471 20.708 52.5871 20.896 53.1151 20.896C53.5791 20.896 53.9631 20.776 54.2671 20.536C54.5791 20.296 54.7751 19.968 54.8551 19.552H56.3071C56.1711 20.328 55.8231 20.944 55.2631 21.4C54.7031 21.856 53.9951 22.084 53.1391 22.084C52.4991 22.084 51.9311 21.948 51.4351 21.676C50.9471 21.404 50.5631 21.012 50.2831 20.5C50.0031 19.988 49.8631 19.384 49.8631 18.688C49.8631 18 50.0031 17.4 50.2831 16.888C50.5631 16.376 50.9471 15.984 51.4351 15.712C51.9311 15.44 52.4991 15.304 53.1391 15.304ZM60.9528 20.812V22H60.1128C59.4088 22 58.8728 21.832 58.5048 21.496C58.1448 21.152 57.9648 20.584 57.9648 19.792V16.552H57.0168V15.388H57.9648V13.744H59.3448V15.388H60.9408V16.552H59.3448V19.816C59.3448 20.192 59.4128 20.452 59.5488 20.596C59.6928 20.74 59.9408 20.812 60.2928 20.812H60.9528ZM66.3548 13.528V18.556C66.3548 19.308 66.5188 19.868 66.8468 20.236C67.1828 20.604 67.6508 20.788 68.2508 20.788C68.8428 20.788 69.3028 20.604 69.6308 20.236C69.9668 19.868 70.1348 19.308 70.1348 18.556V13.528H71.5028V18.556C71.5028 19.716 71.2028 20.596 70.6028 21.196C70.0028 21.788 69.2108 22.084 68.2268 22.084C67.2508 22.084 66.4668 21.788 65.8748 21.196C65.2828 20.596 64.9868 19.716 64.9868 18.556V13.528H66.3548ZM75.2695 15.304C76.0455 15.304 76.6655 15.504 77.1295 15.904C77.6015 16.296 77.8895 16.824 77.9935 17.488H76.6975C76.6415 17.128 76.4855 16.84 76.2295 16.624C75.9815 16.4 75.6495 16.288 75.2335 16.288C74.8895 16.288 74.6215 16.372 74.4295 16.54C74.2455 16.7 74.1535 16.92 74.1535 17.2C74.1535 17.408 74.2215 17.576 74.3575 17.704C74.4935 17.832 74.6615 17.932 74.8615 18.004C75.0695 18.076 75.3615 18.156 75.7375 18.244C76.2335 18.356 76.6335 18.472 76.9375 18.592C77.2495 18.712 77.5135 18.904 77.7295 19.168C77.9535 19.424 78.0655 19.776 78.0655 20.224C78.0655 20.776 77.8535 21.224 77.4295 21.568C77.0135 21.912 76.4495 22.084 75.7375 22.084C74.9135 22.084 74.2455 21.892 73.7335 21.508C73.2295 21.124 72.9255 20.588 72.8215 19.9H74.1535C74.1935 20.26 74.3535 20.552 74.6335 20.776C74.9135 21 75.2815 21.112 75.7375 21.112C76.0655 21.112 76.3215 21.028 76.5055 20.86C76.6975 20.684 76.7935 20.464 76.7935 20.2C76.7935 19.968 76.7215 19.784 76.5775 19.648C76.4335 19.512 76.2535 19.408 76.0375 19.336C75.8215 19.256 75.5255 19.176 75.1495 19.096C74.6695 18.984 74.2775 18.872 73.9735 18.76C73.6775 18.648 73.4215 18.468 73.2055 18.22C72.9975 17.964 72.8935 17.62 72.8935 17.188C72.8935 16.628 73.1015 16.176 73.5175 15.832C73.9415 15.48 74.5255 15.304 75.2695 15.304Z" fill="#685F4A"/>
</svg>
