<svg width="30" height="30" viewBox="0 0 30 30" fill="none" xmlns="http://www.w3.org/2000/svg">
<path opacity="0.4" d="M20.5187 11.25V5C20.5187 4.31 19.9587 3.75 19.2687 3.75H11.7687C11.0787 3.75 10.5187 4.31 10.5187 5V11.25H7.48983C6.36983 11.25 5.82617 12.6175 6.63992 13.3862L14.4835 20.7963C15.1235 21.4013 16.1263 21.4013 16.7663 20.7963L24.6099 13.3862C25.4236 12.6175 24.88 11.25 23.76 11.25H20.5187Z" fill="#7C8899"/>
<path d="M24.375 27.1875H6.875C6.3575 27.1875 5.9375 26.7675 5.9375 26.25C5.9375 25.7325 6.3575 25.3125 6.875 25.3125H24.375C24.8925 25.3125 25.3125 25.7325 25.3125 26.25C25.3125 26.7675 24.8925 27.1875 24.375 27.1875Z" fill="#7C8899"/>
</svg>
