<svg width="24" height="25" viewBox="0 0 24 25" fill="none" xmlns="http://www.w3.org/2000/svg">
<path d="M14 22.25C13.841 22.25 13.683 22.199 13.55 22.1L9.55005 19.1C9.36205 18.958 9.25 18.736 9.25 18.5V14.5C9.25 14.3 9.17203 14.111 9.03003 13.969L3.90906 8.84799C3.48406 8.42199 3.25 7.85799 3.25 7.25699V5C3.25 3.759 4.26 2.75 5.5 2.75H18.5C19.74 2.75 20.75 3.759 20.75 5V7.25699C20.75 7.85799 20.5159 8.42299 20.0909 8.84799L14.97 13.969C14.828 14.111 14.75 14.299 14.75 14.5V21.5C14.75 21.784 14.59 22.044 14.335 22.171C14.229 22.224 14.114 22.25 14 22.25ZM10.75 18.125L13.25 20V14.5C13.25 13.899 13.4841 13.334 13.9091 12.909L19.03 7.78799C19.172 7.64599 19.25 7.45799 19.25 7.25699V5C19.25 4.586 18.913 4.25 18.5 4.25H5.5C5.087 4.25 4.75 4.586 4.75 5V7.25699C4.75 7.45699 4.82797 7.64599 4.96997 7.78799L10.0909 12.909C10.5159 13.335 10.75 13.899 10.75 14.5V18.125Z" fill="#C3CBDB"/>
</svg>
