<svg width="30" height="30" viewBox="0 0 30 30" fill="none" xmlns="http://www.w3.org/2000/svg">
<path opacity="0.4" d="M7.96875 26.25H22.0312C24.8438 26.25 26.25 24.8438 26.25 22.0312V7.96875C26.25 5.15625 24.8438 3.75 22.0312 3.75H7.96875C5.15625 3.75 3.75 5.15625 3.75 7.96875V22.0312C3.75 24.8438 5.15625 26.25 7.96875 26.25Z" fill="#7C8899"/>
<path d="M18.75 19.6875C18.51 19.6875 18.27 19.5963 18.0875 19.4125L14.3375 15.6625C14.1612 15.4863 14.0625 15.2475 14.0625 15V8.75C14.0625 8.2325 14.4825 7.8125 15 7.8125C15.5175 7.8125 15.9375 8.2325 15.9375 8.75V14.6112L19.4125 18.0862C19.7788 18.4525 19.7788 19.0463 19.4125 19.4125C19.23 19.5963 18.99 19.6875 18.75 19.6875Z" fill="#7C8899"/>
</svg>
