<svg width="30" height="30" viewBox="0 0 30 30" fill="none" xmlns="http://www.w3.org/2000/svg">
<path opacity="0.4" d="M25 14.175V22.5C25 25 23.75 26.25 21.25 26.25H17.9124C17.7049 26.25 17.5375 26.0825 17.5375 25.875V22.0275C17.5375 20.7812 16.6937 19.6188 15.4649 19.4113C13.9037 19.1488 12.5375 20.36 12.5375 21.875V25.875C12.5375 26.0825 12.37 26.25 12.1625 26.25H8.75C6.25 26.25 5 25 5 22.5V14.175C5.1375 14.2875 5.28748 14.4 5.44998 14.4875C6.01248 14.8125 6.67503 15 7.37503 15C9.03753 15 10.6749 13.9625 11.1874 12.5C11.6999 13.9625 13.3375 15 15 15C16.6625 15 18.3001 13.9625 18.8126 12.5C19.3251 13.9625 20.9625 15 22.625 15C23.325 15 23.9875 14.8125 24.55 14.4875C24.7125 14.4 24.8625 14.2875 25 14.175Z" fill="#7C8899"/>
<path d="M9.38122 3.75C6.25622 3.75 5.77741 4.77499 5.26241 6.29749L3.96252 10.1387C3.41502 11.7562 3.96874 13.6275 5.46124 14.49C6.02249 14.815 6.67878 15 7.38003 15C9.04253 15 10.6787 13.9625 11.1987 12.5C11.7062 13.9625 13.3425 15 15.005 15C16.6675 15 18.3037 13.9625 18.8112 12.5C19.3312 13.9625 20.9687 15 22.63 15C23.3325 15 23.9875 14.815 24.5488 14.49C26.0413 13.6275 26.595 11.7562 26.0475 10.1387L24.7474 6.29749C24.2324 4.77499 23.7538 3.75 20.6288 3.75H9.38122Z" fill="#7C8899"/>
</svg>
