<svg width="36" height="36" viewBox="0 0 36 36" fill="none" xmlns="http://www.w3.org/2000/svg">
<g clip-path="url(#clip0_3_41)">
<circle cx="18" cy="18" r="18" fill="black" fill-opacity="0.1"/>
<path d="M18.02 12C16.916 12 16.015 11.104 16.015 10C16.015 8.896 16.905 8 18.01 8H18.02C19.124 8 20.02 8.896 20.02 10C20.02 11.104 19.125 12 18.02 12Z" fill="white"/>
<path d="M18.02 20C16.916 20 16.015 19.104 16.015 18C16.015 16.896 16.905 16 18.01 16H18.02C19.124 16 20.02 16.896 20.02 18C20.02 19.104 19.125 20 18.02 20Z" fill="white"/>
<path d="M18.02 28C16.916 28 16.015 27.104 16.015 26C16.015 24.896 16.905 24 18.01 24H18.02C19.124 24 20.02 24.896 20.02 26C20.02 27.104 19.125 28 18.02 28Z" fill="white"/>
</g>
<defs>
<clipPath id="clip0_3_41">
<rect width="36" height="36" fill="white"/>
</clipPath>
</defs>
</svg>
