<svg width="24" height="24" viewBox="0 0 24 24" fill="none" xmlns="http://www.w3.org/2000/svg">
<path d="M14.168 19.751C14.079 19.596 13.914 19.5 13.734 19.5H10.274C10.095 19.5 9.92999 19.596 9.83999 19.751C9.75099 19.906 9.752 20.097 9.841 20.252C10.297 21.033 11.105 21.5 12.003 21.5C12.901 21.5 13.709 21.033 14.165 20.252C14.257 20.098 14.258 19.906 14.168 19.751Z" fill="#00A651"/>
<path opacity="0.4" d="M20.46 18.22C20.37 18.39 20.2 18.5 20 18.5H4.00001C3.81001 18.5 3.64002 18.39 3.55002 18.22C3.47002 18.04 3.49001 17.84 3.61001 17.69C3.63001 17.66 5.51001 15.28 5.51001 12.5V9.21399C5.51001 6.16999 7.51201 3.38498 10.474 2.67998C11.649 2.39998 12.802 2.45998 13.838 2.76498C14.031 2.82198 14.095 3.05098 13.991 3.22198C13.587 3.88998 13.414 4.69599 13.541 5.54799C13.793 7.23099 15.324 8.51098 17.025 8.49898C17.398 8.49598 17.756 8.43698 18.09 8.32498C18.213 8.28398 18.308 8.33099 18.344 8.35599C18.384 8.38399 18.478 8.45799 18.487 8.59799C18.495 8.72999 18.5 8.86398 18.5 8.99998V12.5C18.5 15.28 20.38 17.66 20.4 17.69C20.52 17.84 20.54 18.04 20.46 18.22Z" fill="#00A651"/>
<path d="M17 7C18.1046 7 19 6.10457 19 5C19 3.89543 18.1046 3 17 3C15.8954 3 15 3.89543 15 5C15 6.10457 15.8954 7 17 7Z" fill="#00A651"/>
</svg>
