<svg width="58" height="58" viewBox="0 0 58 58" fill="none" xmlns="http://www.w3.org/2000/svg">
<g clip-path="url(#clip0_197_811)">
<path d="M53.9466 27.118C53.9466 44.1741 40.3296 57.9996 23.5327 57.9996C22.6878 57.9996 21.8519 57.9647 21.0252 57.8958C21.7395 56.6859 22.3727 55.4226 22.9206 54.1122C22.9295 54.0892 22.94 54.0666 22.9492 54.0437C24.4798 50.3577 25.3262 46.3059 25.3262 42.0542C25.3262 35.8766 23.5404 30.1225 20.4628 25.2968H53.8929C53.9139 25.6685 53.9305 26.0419 53.9382 26.4169C53.9442 26.6499 53.947 26.8834 53.947 27.118H53.9466Z" fill="url(#paint0_linear_197_811)"/>
<path d="M53.1874 26.4173C52.8153 41.8261 40.3987 54.1996 25.1339 54.1996C24.388 54.1996 23.6515 54.1705 22.9206 54.1126C22.9295 54.0896 22.94 54.0671 22.9493 54.0441C24.4798 50.3582 25.3262 46.3063 25.3262 42.0546C25.3262 35.877 23.5404 30.1229 20.4628 25.2972H53.1426C53.1636 25.669 53.1802 26.0423 53.1879 26.4173H53.1874Z" fill="black" fill-opacity="0.15"/>
<path d="M46.6943 43.4829C56.3641 33.664 56.3641 17.7443 46.6943 7.92539C37.0245 -1.89356 21.3468 -1.89356 11.677 7.92539C2.00723 17.7443 2.00723 33.664 11.677 43.4829C21.3468 53.3019 37.0245 53.3019 46.6943 43.4829Z" fill="url(#paint1_linear_197_811)"/>
<path d="M22.607 15.0386C22.1872 15.1478 21.9597 15.3824 21.9597 15.714C21.9597 15.9946 22.146 16.1804 22.607 16.3392V15.0386Z" fill="white"/>
<path d="M28.757 15.0386C28.3372 15.1478 28.1097 15.3824 28.1097 15.714C28.1097 15.9946 28.2959 16.1804 28.757 16.3392V15.0386Z" fill="white"/>
<path d="M30.4576 18.5658C30.4576 18.2757 30.2685 18.094 29.7586 17.9229V19.2239C30.0883 19.1525 30.4576 18.9802 30.4576 18.5662V18.5658Z" fill="white"/>
<path d="M36.6071 18.5658C36.6071 18.2757 36.418 18.094 35.9081 17.9229V19.2239C36.2378 19.1525 36.6071 18.9802 36.6071 18.5662V18.5658Z" fill="white"/>
<path d="M24.3076 18.5658C24.3076 18.2757 24.1185 18.094 23.6086 17.9229V19.2239C23.9383 19.1525 24.3076 18.9802 24.3076 18.5662V18.5658Z" fill="white"/>
<path d="M34.9065 15.0386C34.4867 15.1478 34.2592 15.3824 34.2592 15.714C34.2592 15.9946 34.4455 16.1804 34.9065 16.3392V15.0386Z" fill="white"/>
<path d="M39.8346 10.4009H18.5367C17.3395 10.4009 16.369 11.3864 16.369 12.602V39.3804C16.369 40.596 17.3395 41.5815 18.5367 41.5815H39.8346C41.0318 41.5815 42.0023 40.596 42.0023 39.3804V12.602C42.0023 11.3864 41.0318 10.4009 39.8346 10.4009ZM29.0749 38.1803H19.0559V36.8141H29.0749V38.1803ZM29.0749 34.6347H19.0559V33.2685H29.0749V34.6347ZM29.0749 31.0891H19.0559V29.7229H29.0749V31.0891ZM39.3158 35.2292H36.4091V38.1807H33.5166V35.2292H30.6099V32.292H33.5166V29.3405H36.4091V32.292H39.3158V35.2292ZM39.3158 27.5435H19.0563V26.1772H39.3158V27.5435ZM39.3158 23.9979H19.0563V22.6316H39.3158V23.9979Z" fill="white"/>
<path d="M23.995 15.2452L23.7427 16.1346H19L19.2573 15.2452H23.995ZM21.6337 20.5L19.1463 17.7019L19.1413 16.9327H20.3421C20.6347 16.9327 20.8752 16.8814 21.0636 16.7788C21.2553 16.6731 21.3983 16.5304 21.4924 16.351C21.59 16.1715 21.6387 15.9696 21.6387 15.7452C21.6387 15.5112 21.595 15.3045 21.5076 15.125C21.4201 14.9423 21.2805 14.7997 21.0888 14.6971C20.8971 14.5946 20.6431 14.5433 20.3269 14.5433H19.005L19.2926 13.5H20.3269C20.9257 13.5 21.4235 13.5865 21.8204 13.7596C22.2207 13.9295 22.52 14.1779 22.7185 14.5048C22.9203 14.8285 23.0212 15.2196 23.0212 15.6779C23.0212 16.0785 22.9506 16.4327 22.8093 16.7404C22.6714 17.0449 22.4477 17.2933 22.1382 17.4856C21.8288 17.6779 21.4218 17.8061 20.9173 17.8702L23.1726 20.4327V20.5H21.6337ZM24 13.5L23.7427 14.3894H19.8426L20.0999 13.5H24Z" fill="#56B2F5"/>
<path d="M31.495 15.2452L31.2427 16.1346H26.5L26.7573 15.2452H31.495ZM29.1337 20.5L26.6463 17.7019L26.6413 16.9327H27.8421C28.1347 16.9327 28.3752 16.8814 28.5636 16.7788C28.7553 16.6731 28.8983 16.5304 28.9924 16.351C29.09 16.1715 29.1387 15.9696 29.1387 15.7452C29.1387 15.5112 29.095 15.3045 29.0076 15.125C28.9201 14.9423 28.7805 14.7997 28.5888 14.6971C28.3971 14.5946 28.1431 14.5433 27.8269 14.5433H26.505L26.7926 13.5H27.8269C28.4257 13.5 28.9235 13.5865 29.3204 13.7596C29.7207 13.9295 30.02 14.1779 30.2185 14.5048C30.4203 14.8285 30.5212 15.2196 30.5212 15.6779C30.5212 16.0785 30.4506 16.4327 30.3093 16.7404C30.1714 17.0449 29.9477 17.2933 29.6382 17.4856C29.3288 17.6779 28.9218 17.8061 28.4173 17.8702L30.6726 20.4327V20.5H29.1337ZM31.5 13.5L31.2427 14.3894H27.3426L27.5999 13.5H31.5Z" fill="#56B2F5"/>
<path d="M38.995 15.2452L38.7427 16.1346H34L34.2573 15.2452H38.995ZM36.6337 20.5L34.1463 17.7019L34.1413 16.9327H35.3421C35.6347 16.9327 35.8752 16.8814 36.0636 16.7788C36.2553 16.6731 36.3983 16.5304 36.4924 16.351C36.59 16.1715 36.6387 15.9696 36.6387 15.7452C36.6387 15.5112 36.595 15.3045 36.5076 15.125C36.4201 14.9423 36.2805 14.7997 36.0888 14.6971C35.8971 14.5946 35.6431 14.5433 35.3269 14.5433H34.005L34.2926 13.5H35.3269C35.9257 13.5 36.4235 13.5865 36.8204 13.7596C37.2207 13.9295 37.52 14.1779 37.7185 14.5048C37.9203 14.8285 38.0212 15.2196 38.0212 15.6779C38.0212 16.0785 37.9506 16.4327 37.8093 16.7404C37.6714 17.0449 37.4477 17.2933 37.1382 17.4856C36.8288 17.6779 36.4218 17.8061 35.9173 17.8702L38.1726 20.4327V20.5H36.6337ZM39 13.5L38.7427 14.3894H34.8426L35.0999 13.5H39Z" fill="#56B2F5"/>
<path d="M6.14266 7.32629C4.99962 7.32629 4.07639 8.26378 4.07639 9.42445C4.07639 10.5851 4.99962 11.5226 6.14266 11.5226C7.2857 11.5226 8.20854 10.5827 8.20854 9.42445C8.20854 8.26624 7.28328 7.32629 6.14266 7.32629ZM6.14266 10.7447C5.42468 10.7447 4.84245 10.1535 4.84245 9.42445C4.84245 8.69539 5.42508 8.10418 6.14266 8.10418C6.86024 8.10418 7.44247 8.69539 7.44247 9.42445C7.44247 10.1535 6.86065 10.7447 6.14266 10.7447Z" fill="#CEDDEA"/>
<path d="M55.8452 34.5182C54.907 34.5182 54.149 35.2875 54.149 36.2406C54.149 37.1937 54.907 37.9629 55.8452 37.9629C56.7834 37.9629 57.541 37.1916 57.541 36.2406C57.541 35.2896 56.7818 34.5182 55.8452 34.5182ZM55.8452 37.1436C55.3539 37.1436 54.9555 36.7391 54.9555 36.2402C54.9555 35.7413 55.3539 35.3367 55.8452 35.3367C56.3365 35.3367 56.7345 35.7413 56.7345 36.2402C56.7345 36.7391 56.3361 37.1436 55.8452 37.1436Z" fill="#CEDDEA"/>
<path d="M55.8254 7.82318C54.6222 7.82318 53.6501 8.8099 53.6501 10.0317C53.6501 11.2535 54.6218 12.2402 55.8254 12.2402C57.0291 12.2402 58 11.251 58 10.0317C58 8.81236 57.0262 7.82318 55.8254 7.82318ZM55.8254 11.4213C55.0699 11.4213 54.4565 10.7989 54.4565 10.0317C54.4565 9.26448 55.0695 8.64209 55.8254 8.64209C56.5814 8.64209 57.1939 9.26448 57.1939 10.0317C57.1939 10.7989 56.5814 11.4213 55.8254 11.4213Z" fill="#CEDDEA"/>
<path d="M3.17537 35.754C1.97213 35.754 1 36.7407 1 37.9625C1 39.1843 1.97172 40.171 3.17537 40.171C4.37901 40.171 5.34993 39.1818 5.34993 37.9625C5.34993 36.7431 4.37619 35.754 3.17537 35.754ZM3.17537 39.3521C2.41981 39.3521 1.80647 38.7297 1.80647 37.9625C1.80647 37.1953 2.4194 36.5729 3.17537 36.5729C3.93133 36.5729 4.54386 37.1953 4.54386 37.9625C4.54386 38.7297 3.93133 39.3521 3.17537 39.3521Z" fill="#CEDDEA"/>
<path d="M2.90752 23.7199C3.26412 23.3578 3.26412 22.7707 2.90752 22.4086C2.55091 22.0465 1.97275 22.0465 1.61614 22.4086C1.25954 22.7707 1.25954 23.3578 1.61614 23.7199C1.97275 24.082 2.55091 24.082 2.90752 23.7199Z" fill="#CEDDEA"/>
<path d="M56.471 20.7081C56.8276 20.346 56.8276 19.7589 56.471 19.3968C56.1144 19.0347 55.5362 19.0347 55.1796 19.3968C54.823 19.7589 54.823 20.346 55.1796 20.7081C55.5362 21.0702 56.1144 21.0702 56.471 20.7081Z" fill="#CEDDEA"/>
<path d="M17.784 1.67393C18.2392 1.67393 18.6082 1.29921 18.6082 0.836964C18.6082 0.374722 18.2392 0 17.784 0C17.3287 0 16.9597 0.374722 16.9597 0.836964C16.9597 1.29921 17.3287 1.67393 17.784 1.67393Z" fill="#CEDDEA"/>
<path d="M44.7316 3.42582C45.1752 3.42582 45.5349 3.06065 45.5349 2.61019C45.5349 2.15973 45.1752 1.79456 44.7316 1.79456C44.288 1.79456 43.9284 2.15973 43.9284 2.61019C43.9284 3.06065 44.288 3.42582 44.7316 3.42582Z" fill="#CEDDEA"/>
<path d="M46.8965 3.42542C47.3399 3.42542 47.6993 3.06044 47.6993 2.6102C47.6993 2.15997 47.3399 1.79498 46.8965 1.79498C46.4531 1.79498 46.0937 2.15997 46.0937 2.6102C46.0937 3.06044 46.4531 3.42542 46.8965 3.42542Z" fill="#CEDDEA"/>
<path d="M49.0609 3.42582C49.5045 3.42582 49.8642 3.06065 49.8642 2.61019C49.8642 2.15973 49.5045 1.79456 49.0609 1.79456C48.6173 1.79456 48.2577 2.15973 48.2577 2.61019C48.2577 3.06065 48.6173 3.42582 49.0609 3.42582Z" fill="#CEDDEA"/>
<path d="M5.59437 45.1766C6.03776 45.1766 6.3972 44.8116 6.3972 44.3614C6.3972 43.9111 6.03776 43.5461 5.59437 43.5461C5.15098 43.5461 4.79153 43.9111 4.79153 44.3614C4.79153 44.8116 5.15098 45.1766 5.59437 45.1766Z" fill="#CEDDEA"/>
<path d="M7.75923 45.1768C8.20285 45.1768 8.56247 44.8116 8.56247 44.3612C8.56247 43.9107 8.20285 43.5455 7.75923 43.5455C7.31562 43.5455 6.95599 43.9107 6.95599 44.3612C6.95599 44.8116 7.31562 45.1768 7.75923 45.1768Z" fill="#CEDDEA"/>
<path d="M9.92368 45.1764C10.3671 45.1764 10.7265 44.8114 10.7265 44.3612C10.7265 43.9109 10.3671 43.546 9.92368 43.546C9.48029 43.546 9.12085 43.9109 9.12085 44.3612C9.12085 44.8114 9.48029 45.1764 9.92368 45.1764Z" fill="#CEDDEA"/>
<path d="M16.9601 51.2846C17.4153 51.2846 17.7844 50.9099 17.7844 50.4476C17.7844 49.9854 17.4153 49.6107 16.9601 49.6107C16.5049 49.6107 16.1359 49.9854 16.1359 50.4476C16.1359 50.9099 16.5049 51.2846 16.9601 51.2846Z" fill="#CEDDEA"/>
</g>
<defs>
<linearGradient id="paint0_linear_197_811" x1="20.4624" y1="41.6484" x2="53.9466" y2="41.6484" gradientUnits="userSpaceOnUse">
<stop offset="0.18" stop-color="#56B2F5"/>
<stop offset="0.51" stop-color="#63C2F8"/>
<stop offset="1" stop-color="#56B2F5"/>
</linearGradient>
<linearGradient id="paint1_linear_197_811" x1="4.42471" y1="25.7041" x2="1.04044" y2="25.7041" gradientUnits="userSpaceOnUse">
<stop offset="0.18" stop-color="#56B2F5"/>
<stop offset="0.51" stop-color="#638DF8"/>
<stop offset="1" stop-color="#80C2FF"/>
</linearGradient>
<clipPath id="clip0_197_811">
<rect width="58" height="58" fill="white"/>
</clipPath>
</defs>
</svg>
