<svg width="30" height="30" viewBox="0 0 30 30" fill="none" xmlns="http://www.w3.org/2000/svg">
<path opacity="0.4" d="M15 27.5C21.9036 27.5 27.5 21.9036 27.5 15C27.5 8.09644 21.9036 2.5 15 2.5C8.09644 2.5 2.5 8.09644 2.5 15C2.5 21.9036 8.09644 27.5 15 27.5Z" fill="#7C8899"/>
<path d="M22.175 22.825C20.2875 24.5625 17.7625 25.625 15 25.625C12.2375 25.625 9.71251 24.5625 7.82501 22.825C8.37501 21.1 9.80005 19.4624 12.8625 19.4624H17.1375C20.1875 19.4624 21.6125 21.1125 22.175 22.825ZM18.7601 12.5C18.7601 10.4288 17.0813 8.75 15.0101 8.75C12.9388 8.75 11.2601 10.4288 11.2601 12.5C11.2601 14.5712 12.9388 16.25 15.0101 16.25C17.0813 16.25 18.7601 14.5712 18.7601 12.5Z" fill="#7C8899"/>
</svg>
