<svg width="36" height="36" viewBox="0 0 36 36" fill="none" xmlns="http://www.w3.org/2000/svg">
<g clip-path="url(#clip0_3_49)">
<circle cx="18" cy="18" r="18" fill="black" fill-opacity="0.1"/>
<path d="M28 10V15C28 15.552 27.553 16 27 16H22C21.447 16 21 15.552 21 15C21 14.448 21.447 14 22 14H24.9099C23.5029 11.565 20.887 10 18 10C13.911 10 10.495 13.0559 10.054 17.1079C9.99796 17.6199 9.56504 18 9.06104 18C9.02504 18 8.9889 17.9979 8.9519 17.9939C8.4029 17.9339 8.00692 17.4411 8.06592 16.8911C8.61892 11.8221 12.889 7.99902 18.001 7.99902C21.204 7.99902 24.148 9.53408 26.001 12.0071V10C26.001 9.448 26.448 9 27.001 9C27.554 9 28 9.448 28 10ZM27.0491 18.0061C26.4881 17.9471 26.006 18.3431 25.946 18.8921C25.505 22.9451 22.089 26 18 26C15.113 26 12.4971 24.435 11.0901 22H14C14.553 22 15 21.552 15 21C15 20.448 14.553 20 14 20H9C8.447 20 8 20.448 8 21V26C8 26.552 8.447 27 9 27C9.553 27 10 26.552 10 26V23.9919C11.853 26.4649 14.797 28 18 28C23.111 28 27.3821 24.1769 27.9351 19.1079C27.9941 18.5589 27.5981 18.0661 27.0491 18.0061Z" fill="white"/>
</g>
<defs>
<clipPath id="clip0_3_49">
<rect width="36" height="36" fill="white"/>
</clipPath>
</defs>
</svg>
